<svg width="80" height="80" viewBox="0 0 80 80" fill="none" xmlns="http://www.w3.org/2000/svg">
<path fill-rule="evenodd" clip-rule="evenodd" d="M39.999 15.999C29.3311 15.999 22.6646 21.333 19.9976 31.999C23.999 26.667 28.6648 24.6643 33.9988 25.9988C37.0421 26.7611 39.2176 28.9672 41.6234 31.4115C45.5461 35.3918 50.0852 40 59.9986 40C70.6665 40 77.333 34.666 80 24C76.0005 29.332 71.3328 31.3328 66.0007 30.0002C62.9574 29.238 60.7819 27.0318 58.3742 24.5856C54.4515 20.6072 49.9124 15.999 39.999 15.999ZM20.0014 40C9.33157 40 2.66699 45.3301 0 55.9981C3.99952 50.6641 8.66723 48.6634 14.0012 49.9978C17.0426 50.7582 19.218 52.9663 21.6258 55.4086C25.5485 59.3928 30.0876 64.0009 40.001 64.0009C50.6689 64.0009 57.3354 58.6689 60.0024 48.0009C56.001 53.3349 51.3352 55.3356 46.0012 54.0012C42.9579 53.2408 40.7843 51.0327 38.3766 48.5885C34.4539 44.6082 29.9148 40 20.0014 40V40Z" fill="#38BDF8"/>
</svg>
